<svg xmlns="http://www.w3.org/2000/svg" viewBox="0 0 760 760">
<path fill="#fff" d="M660 0H100C44.86 0 0 44.86 0 100v560c0 55.14 44.86 100 100 100h560c55.14 0 100-44.86 100-100V100c0-55.14-44.86-100-100-100zm60 660c0 33.08-26.91 60-60 60H100c-33.08 0-60-26.92-60-60V100c0-33.08 26.92-60 60-60h560c33.09 0 60 26.92 60 60v560z"/>
<path fill="#fff" d="M609.35 128.91h-144c-15.44 0-28 12.56-28 28v132h-120v-132c0-15.44-12.56-28-28-28H145.35c-15.44 0-28 12.56-28 28v144c0 15.44 12.56 28 28 28h132v40h-52c-15.44 0-28 12.56-28 28v224c0 15.44 12.56 28 28 28h64c15.44 0 28-12.56 28-28v-52h120v52c0 15.44 12.56 28 28 28h64c15.44 0 28-12.56 28-28v-224c0-15.44-12.56-28-28-28h-52v-40h132c15.44 0 28-12.56 28-28v-144c0-15.44-12.56-28-28-28zM157.35 288.91v-120h120v120h-120zm360 120v200h-40v-52c0-15.44-12.56-28-28-28h-144c-15.44 0-28 12.56-28 28v52h-40v-200h52c15.44 0 28-12.56 28-28v-52h120v52c0 15.44 12.56 28 28 28h52zm80-120h-120v-120h120v120z"/>
</svg>